<svg width="141" height="22" viewBox="0 0 141 22" fill="none" xmlns="http://www.w3.org/2000/svg">
<g opacity="0.6">
<path d="M31.008 15.8H37.056V17H29.728V6.44H31.008V15.8ZM42.1281 8.84C42.8855 8.84 43.5521 9.00533 44.1281 9.336C44.7148 9.66667 45.1735 10.1467 45.5041 10.776C45.8348 11.3947 46.0001 12.136 46.0001 13C46.0001 13.864 45.8348 14.6107 45.5041 15.24C45.1735 15.8587 44.7148 16.3333 44.1281 16.664C43.5521 16.9947 42.8855 17.16 42.1281 17.16C41.3815 17.16 40.7148 16.9947 40.1281 16.664C39.5415 16.3333 39.0828 15.8587 38.7521 15.24C38.4215 14.6107 38.2561 13.864 38.2561 13C38.2561 12.136 38.4215 11.3947 38.7521 10.776C39.0828 10.1467 39.5415 9.66667 40.1281 9.336C40.7148 9.00533 41.3815 8.84 42.1281 8.84ZM42.1281 9.944C41.5841 9.944 41.1201 10.0667 40.7361 10.312C40.3521 10.5573 40.0535 10.9093 39.8401 11.368C39.6375 11.816 39.5361 12.36 39.5361 13C39.5361 13.6293 39.6375 14.1733 39.8401 14.632C40.0535 15.0907 40.3521 15.4427 40.7361 15.688C41.1201 15.9333 41.5841 16.056 42.1281 16.056C42.6721 16.056 43.1361 15.9333 43.5201 15.688C43.9041 15.4427 44.1975 15.0907 44.4001 14.632C44.6135 14.1733 44.7201 13.6293 44.7201 13C44.7201 12.36 44.6135 11.816 44.4001 11.368C44.1975 10.9093 43.9041 10.5573 43.5201 10.312C43.1361 10.0667 42.6721 9.944 42.1281 9.944ZM53.0819 11.832C53.0819 11.2347 52.9219 10.776 52.6019 10.456C52.2819 10.1253 51.8285 9.96 51.2419 9.96C50.6872 9.96 50.2179 10.0827 49.8339 10.328C49.4499 10.5627 49.1672 10.9467 48.9859 11.48L47.9459 10.84C48.1592 10.2427 48.5539 9.76267 49.1299 9.4C49.7059 9.02667 50.4205 8.84 51.2739 8.84C51.8499 8.84 52.3725 8.94133 52.8419 9.144C53.3112 9.336 53.6792 9.63467 53.9459 10.04C54.2232 10.4347 54.3619 10.9467 54.3619 11.576V15.448C54.3619 15.832 54.5645 16.024 54.9699 16.024C55.1725 16.024 55.3699 15.9973 55.5619 15.944L55.4979 16.952C55.2845 17.0587 55.0072 17.112 54.6659 17.112C54.3565 17.112 54.0792 17.0533 53.8339 16.936C53.5885 16.8187 53.3965 16.6427 53.2579 16.408C53.1192 16.1627 53.0499 15.8587 53.0499 15.496V15.336L53.3699 15.384C53.2419 15.8 53.0232 16.1413 52.7139 16.408C52.4045 16.664 52.0579 16.856 51.6739 16.984C51.2899 17.1013 50.9112 17.16 50.5379 17.16C50.0685 17.16 49.6312 17.08 49.2259 16.92C48.8205 16.76 48.4952 16.52 48.2499 16.2C48.0152 15.8693 47.8979 15.464 47.8979 14.984C47.8979 14.3867 48.0952 13.896 48.4899 13.512C48.8952 13.1173 49.4552 12.8507 50.1699 12.712L53.3379 12.088V13.144L50.7619 13.672C50.2392 13.7787 49.8499 13.928 49.5939 14.12C49.3379 14.312 49.2099 14.5787 49.2099 14.92C49.2099 15.2507 49.3379 15.5227 49.5939 15.736C49.8605 15.9387 50.2339 16.04 50.7139 16.04C51.0232 16.04 51.3165 16.0027 51.5939 15.928C51.8819 15.8427 52.1379 15.72 52.3619 15.56C52.5859 15.3893 52.7619 15.1813 52.8899 14.936C53.0179 14.68 53.0819 14.3813 53.0819 14.04V11.832ZM57.4724 17V9H58.5924L58.7044 10.792L58.4964 10.616C58.667 10.1893 58.8964 9.848 59.1844 9.592C59.4724 9.32533 59.803 9.13333 60.1764 9.016C60.5604 8.89867 60.955 8.84 61.3604 8.84C61.9364 8.84 62.459 8.952 62.9284 9.176C63.3977 9.38933 63.771 9.72 64.0484 10.168C64.3364 10.616 64.4804 11.1867 64.4804 11.88V17H63.2004V12.328C63.2004 11.4427 63.0084 10.8293 62.6244 10.488C62.251 10.136 61.787 9.96 61.2324 9.96C60.8484 9.96 60.4644 10.0507 60.0804 10.232C59.6964 10.4133 59.3764 10.7067 59.1204 11.112C58.875 11.5173 58.7524 12.0613 58.7524 12.744V17H57.4724ZM76.7998 6.44C77.5144 6.44 78.1331 6.57333 78.6558 6.84C79.1891 7.096 79.6051 7.464 79.9038 7.944C80.2024 8.424 80.3518 8.99467 80.3518 9.656C80.3518 10.3173 80.2024 10.888 79.9038 11.368C79.6051 11.848 79.1891 12.2213 78.6558 12.488C78.1331 12.744 77.5144 12.872 76.7998 12.872H74.3518V17H73.0718V6.44H76.7998ZM76.6078 11.672C77.4398 11.672 78.0478 11.5013 78.4318 11.16C78.8158 10.808 79.0078 10.3067 79.0078 9.656C79.0078 8.99467 78.8158 8.49333 78.4318 8.152C78.0478 7.81067 77.4398 7.64 76.6078 7.64H74.3518V11.672H76.6078ZM82.5974 17V9H83.6374L83.8134 10.312C84.0374 9.82133 84.3627 9.45333 84.7894 9.208C85.2267 8.96267 85.7547 8.84 86.3734 8.84C86.512 8.84 86.6614 8.85067 86.8214 8.872C86.992 8.89333 87.136 8.936 87.2534 9L87.0294 10.168C86.912 10.1253 86.784 10.0933 86.6454 10.072C86.5067 10.0507 86.3094 10.04 86.0534 10.04C85.7227 10.04 85.3867 10.136 85.0454 10.328C84.7147 10.52 84.4374 10.8133 84.2134 11.208C83.9894 11.592 83.8774 12.0827 83.8774 12.68V17H82.5974ZM92.1906 8.84C92.948 8.84 93.6146 9.00533 94.1906 9.336C94.7773 9.66667 95.236 10.1467 95.5666 10.776C95.8973 11.3947 96.0626 12.136 96.0626 13C96.0626 13.864 95.8973 14.6107 95.5666 15.24C95.236 15.8587 94.7773 16.3333 94.1906 16.664C93.6146 16.9947 92.948 17.16 92.1906 17.16C91.444 17.16 90.7773 16.9947 90.1906 16.664C89.604 16.3333 89.1453 15.8587 88.8146 15.24C88.484 14.6107 88.3186 13.864 88.3186 13C88.3186 12.136 88.484 11.3947 88.8146 10.776C89.1453 10.1467 89.604 9.66667 90.1906 9.336C90.7773 9.00533 91.444 8.84 92.1906 8.84ZM92.1906 9.944C91.6466 9.944 91.1826 10.0667 90.7986 10.312C90.4146 10.5573 90.116 10.9093 89.9026 11.368C89.7 11.816 89.5986 12.36 89.5986 13C89.5986 13.6293 89.7 14.1733 89.9026 14.632C90.116 15.0907 90.4146 15.4427 90.7986 15.688C91.1826 15.9333 91.6466 16.056 92.1906 16.056C92.7346 16.056 93.1986 15.9333 93.5826 15.688C93.9666 15.4427 94.26 15.0907 94.4626 14.632C94.676 14.1733 94.7826 13.6293 94.7826 13C94.7826 12.36 94.676 11.816 94.4626 11.368C94.26 10.9093 93.9666 10.5573 93.5826 10.312C93.1986 10.0667 92.7346 9.944 92.1906 9.944ZM101.592 17.16C100.931 17.16 100.323 16.9947 99.7684 16.664C99.2137 16.3333 98.771 15.8587 98.4404 15.24C98.1097 14.6107 97.9444 13.864 97.9444 13C97.9444 12.1147 98.1204 11.3627 98.4724 10.744C98.8244 10.1253 99.2884 9.656 99.8644 9.336C100.44 9.00533 101.059 8.84 101.72 8.84C102.382 8.84 102.952 9.01067 103.432 9.352C103.923 9.69333 104.248 10.1467 104.408 10.712L104.248 10.824V5.32H105.528V17H104.408L104.296 15.064L104.472 14.968C104.398 15.4373 104.216 15.8373 103.928 16.168C103.651 16.488 103.304 16.7333 102.888 16.904C102.483 17.0747 102.051 17.16 101.592 17.16ZM101.72 16.04C102.232 16.04 102.675 15.912 103.048 15.656C103.432 15.4 103.726 15.0373 103.928 14.568C104.142 14.088 104.248 13.528 104.248 12.888C104.248 12.28 104.142 11.7573 103.928 11.32C103.726 10.8827 103.438 10.5467 103.064 10.312C102.702 10.0773 102.275 9.96 101.784 9.96C100.974 9.96 100.344 10.2373 99.8964 10.792C99.4484 11.3467 99.2244 12.0827 99.2244 13C99.2244 13.9173 99.443 14.6533 99.8804 15.208C100.318 15.7627 100.931 16.04 101.72 16.04ZM111.4 17.16C110.888 17.16 110.402 17.064 109.944 16.872C109.496 16.68 109.128 16.3707 108.84 15.944C108.562 15.5067 108.424 14.9413 108.424 14.248V9H109.704V13.912C109.704 14.7227 109.88 15.2827 110.232 15.592C110.584 15.8907 111.08 16.04 111.72 16.04C112.018 16.04 112.312 15.992 112.6 15.896C112.888 15.7893 113.144 15.6293 113.368 15.416C113.602 15.192 113.784 14.9093 113.912 14.568C114.05 14.2267 114.12 13.8213 114.12 13.352V9H115.4V17H114.28L114.2 15.784C113.922 16.264 113.544 16.616 113.064 16.84C112.594 17.0533 112.04 17.16 111.4 17.16ZM121.691 8.84C122.245 8.84 122.731 8.92533 123.147 9.096C123.573 9.26667 123.941 9.512 124.251 9.832C124.56 10.152 124.811 10.5307 125.003 10.968L123.787 11.544C123.616 11.032 123.355 10.6427 123.003 10.376C122.661 10.0987 122.213 9.96 121.659 9.96C121.125 9.96 120.667 10.0827 120.283 10.328C119.899 10.5627 119.605 10.9093 119.403 11.368C119.2 11.816 119.099 12.36 119.099 13C119.099 13.6293 119.2 14.1733 119.403 14.632C119.605 15.0907 119.899 15.4427 120.283 15.688C120.667 15.9227 121.125 16.04 121.659 16.04C122.075 16.04 122.432 15.976 122.731 15.848C123.04 15.72 123.291 15.5333 123.483 15.288C123.685 15.0427 123.824 14.744 123.899 14.392L125.083 14.808C124.901 15.2987 124.651 15.72 124.331 16.072C124.021 16.424 123.643 16.696 123.195 16.888C122.757 17.0693 122.256 17.16 121.691 17.16C120.944 17.16 120.277 16.9947 119.691 16.664C119.104 16.3333 118.645 15.8587 118.315 15.24C117.984 14.6107 117.819 13.864 117.819 13C117.819 12.136 117.984 11.3947 118.315 10.776C118.645 10.1467 119.104 9.66667 119.691 9.336C120.277 9.00533 120.944 8.84 121.691 8.84ZM129.22 6.728V14.792C129.22 15.1867 129.332 15.48 129.556 15.672C129.78 15.864 130.068 15.96 130.42 15.96C130.729 15.96 130.996 15.9067 131.22 15.8C131.444 15.6933 131.646 15.5493 131.828 15.368L132.276 16.44C132.03 16.664 131.737 16.84 131.396 16.968C131.065 17.096 130.681 17.16 130.244 17.16C129.838 17.16 129.46 17.0907 129.108 16.952C128.756 16.8027 128.473 16.5733 128.26 16.264C128.057 15.944 127.95 15.528 127.94 15.016V7.08L129.22 6.728ZM132.132 9V10.104H126.34V9H132.132ZM136.915 17.16C136.136 17.16 135.416 16.9947 134.755 16.664C134.104 16.3333 133.603 15.864 133.251 15.256L134.339 14.472C134.574 14.9627 134.915 15.3467 135.363 15.624C135.822 15.9013 136.371 16.04 137.011 16.04C137.576 16.04 138.019 15.9333 138.339 15.72C138.659 15.496 138.819 15.208 138.819 14.856C138.819 14.632 138.744 14.4293 138.595 14.248C138.456 14.056 138.184 13.9173 137.779 13.832L135.859 13.432C135.08 13.272 134.52 13.0053 134.179 12.632C133.848 12.2587 133.683 11.7947 133.683 11.24C133.683 10.8027 133.806 10.4027 134.051 10.04C134.307 9.67733 134.664 9.38933 135.123 9.176C135.592 8.952 136.142 8.84 136.771 8.84C137.56 8.84 138.227 8.99467 138.771 9.304C139.315 9.61333 139.72 10.0507 139.987 10.616L138.915 11.32C138.734 10.8507 138.44 10.5093 138.035 10.296C137.63 10.072 137.208 9.96 136.771 9.96C136.387 9.96 136.056 10.0133 135.779 10.12C135.512 10.2267 135.304 10.376 135.155 10.568C135.016 10.7493 134.947 10.9573 134.947 11.192C134.947 11.4267 135.027 11.6453 135.187 11.848C135.347 12.04 135.646 12.1787 136.083 12.264L138.083 12.68C138.83 12.8293 139.352 13.0747 139.651 13.416C139.95 13.7573 140.099 14.1733 140.099 14.664C140.099 15.1653 139.966 15.608 139.699 15.992C139.432 16.3653 139.059 16.6533 138.579 16.856C138.099 17.0587 137.544 17.16 136.915 17.16Z" fill="#213F7D"/>
<g clip-path="url(#clip0_58073_770)">
<path d="M17.625 12.7813L12.9 16.5625C12.545 16.8459 12.1042 17.0002 11.65 17H0.5C0.367392 17 0.240215 16.9473 0.146447 16.8536C0.0526784 16.7598 0 16.6326 0 16.5V13.5C0 13.3674 0.0526784 13.2402 0.146447 13.1464C0.240215 13.0527 0.367392 13 0.5 13H2.23125L3.68438 11.8219C4.3392 11.2905 5.15673 11.0004 6 11H11C11.1458 10.9997 11.2898 11.0313 11.4221 11.0926C11.5543 11.1538 11.6716 11.2433 11.7657 11.3546C11.8598 11.4659 11.9284 11.5965 11.9667 11.7371C12.005 11.8778 12.0121 12.0251 11.9875 12.1688C11.9062 12.6594 11.4437 13 10.9469 13H8.5C8.36739 13 8.24021 13.0527 8.14645 13.1464C8.05268 13.2402 8 13.3674 8 13.5C8 13.6326 8.05268 13.7598 8.14645 13.8536C8.24021 13.9473 8.36739 14 8.5 14H12.1969C12.6513 14.0012 13.0924 13.8468 13.4469 13.5625L16.3344 11.2531C16.7219 10.9406 17.2969 10.9188 17.6656 11.2531C17.7744 11.3499 17.8606 11.4693 17.9185 11.6029C17.9763 11.7365 18.0042 11.8811 18.0004 12.0266C17.9965 12.1722 17.9609 12.3151 17.8961 12.4454C17.8312 12.5758 17.7387 12.6904 17.625 12.7813Z" fill="#213F7D"/>
</g>
<g clip-path="url(#clip1_58073_770)">
<path opacity="0.4" d="M7.75004 1.875H10.25L11.1758 0.485937C11.2072 0.438878 11.2253 0.384177 11.228 0.327671C11.2307 0.271165 11.2181 0.214974 11.1914 0.165091C11.1647 0.115208 11.125 0.0735042 11.0765 0.0444293C11.0279 0.0153544 10.9724 -1.39459e-06 10.9159 0L7.08481 0C7.02823 -1.39459e-06 6.97272 0.0153544 6.92419 0.0444293C6.87566 0.0735042 6.83594 0.115208 6.80925 0.165091C6.78256 0.214974 6.76992 0.271165 6.77267 0.327671C6.77541 0.384177 6.79345 0.438878 6.82485 0.485937L7.75004 1.875ZM10.25 2.5H7.75004C3.79731 4.75391 4.0018 7.74687 4.0018 8.125C4.0018 9.16016 4.96098 10 6.14399 10H11.8565C13.0397 10 13.9987 9.16016 13.9987 8.125C13.9987 7.75391 14.1813 4.74141 10.25 2.5Z" fill="#213F7D"/>
<path d="M10.582 2.03125V2.34375C10.582 2.38519 10.5656 2.42493 10.5363 2.45424C10.507 2.48354 10.4672 2.5 10.4258 2.5H7.57422C7.53278 2.5 7.49304 2.48354 7.46373 2.45424C7.43443 2.42493 7.41797 2.38519 7.41797 2.34375V2.03125C7.41797 1.98981 7.43443 1.95007 7.46373 1.92076C7.49304 1.89146 7.53278 1.875 7.57422 1.875H10.4258C10.4672 1.875 10.507 1.89146 10.5363 1.92076C10.5656 1.95007 10.582 1.98981 10.582 2.03125Z" fill="#213F7D"/>
<path d="M7.67198 7.6273V6.21304H7.125V5.78433H7.67198V4.375H8.44563L9.21436 5.78433H9.7367V4.375H10.328V5.78433H10.875V6.21304H10.328V7.6273H9.55437L8.77579 6.21304H8.2633V7.6273H7.67198ZM8.2633 5.73998V5.78433H8.53926L8.25345 5.20779H8.24852L8.2633 5.73998ZM9.74655 6.8093H9.75641L9.7367 6.29681V6.21304H9.44596L9.46567 6.24261L9.74655 6.8093Z" fill="#213F7D"/>
</g>
</g>
<defs>
<clipPath id="clip0_58073_770">
<rect width="18" height="16" fill="white" transform="translate(0 6)"/>
</clipPath>
<clipPath id="clip1_58073_770">
<rect width="10" height="10" fill="white" transform="translate(4)"/>
</clipPath>
</defs>
</svg>
